HIERARCHY
ROOT hip
{
	OFFSET 0.000000 0.000000 0.000000 
	CHANNELS 6 Xposition Yposition Zposition Xrotation Zrotation Yrotation
	JOINT abdomen
	{
		OFFSET 0.000000 3.402643 0.000000 
		CHANNELS 3 Xrotation Zrotation Yrotation
		JOINT chest
		{
			OFFSET 0.000000 8.438565 -0.680529 
			CHANNELS 3 Xrotation Zrotation Yrotation
			JOINT neck
			{
				OFFSET 0.000000 10.207942 -0.272212 
				CHANNELS 3 Xrotation Zrotation Yrotation
				JOINT head
				{
					OFFSET 0.000000 3.130431 0.000000 
					CHANNELS 3 Xrotation Zrotation Yrotation
					End Site
					{
						OFFSET 0.000000 3.130435 0.000000 
					}
				}
			}
			JOINT lCollar
			{
				OFFSET 3.470700 6.669187 -0.816635 
				CHANNELS 3 Yrotation Zrotation Xrotation
				JOINT lShldr
				{
					OFFSET 3.198488 0.000000 0.000000 
					CHANNELS 3 Zrotation Yrotation Xrotation
					JOINT lForeArm
					{
						OFFSET 10.139888 0.000000 0.000000 
						CHANNELS 3 Yrotation Zrotation Xrotation
						JOINT lHand
						{
							OFFSET 8.370511 0.000000 0.000000 
							CHANNELS 3 Zrotation Yrotation Xrotation
							End Site
							{
								OFFSET 4.083176 0.000000 0.000000 
							}
						}
					}
				}
			}
			JOINT rCollar
			{
				OFFSET -3.470700 6.669187 -0.816635 
				CHANNELS 3 Yrotation Zrotation Xrotation
				JOINT rShldr
				{
					OFFSET -3.198488 0.000000 0.000000 
					CHANNELS 3 Zrotation Yrotation Xrotation
					JOINT rForeArm
					{
						OFFSET -10.139888 0.000000 0.000000 
						CHANNELS 3 Yrotation Zrotation Xrotation
						JOINT rHand
						{
							OFFSET -8.370511 0.000000 0.000000 
							CHANNELS 3 Zrotation Yrotation Xrotation
							End Site
							{
								OFFSET -4.083176 0.000000 0.000000 
							}
						}
					}
				}
			}
		}
	}
	JOINT lThigh
	{
		OFFSET 5.308129 -1.633274 1.361059 
		CHANNELS 3 Xrotation Zrotation Yrotation
		JOINT lShin
		{
			OFFSET -2.041588 -20.007561 0.000000 
			CHANNELS 3 Xrotation Zrotation Yrotation
			JOINT lFoot
			{
				OFFSET 0.000000 -19.190928 -1.224953 
				CHANNELS 3 Xrotation Yrotation Zrotation
				End Site
				{
					OFFSET 0.000000 -2.449906 4.627600 
				}
			}
		}
	}
	JOINT rThigh
	{
		OFFSET -5.308129 -1.633274 1.361059 
		CHANNELS 3 Xrotation Zrotation Yrotation
		JOINT rShin
		{
			OFFSET 2.041588 -20.007561 0.000000 
			CHANNELS 3 Xrotation Zrotation Yrotation
			JOINT rFoot
			{
				OFFSET 0.000000 -19.190928 -1.224953 
				CHANNELS 3 Xrotation Yrotation Zrotation
				End Site
				{
					OFFSET 0.000000 -2.449906 4.627600 
				}
			}
		}
	}
}
MOTION
Frames: 19
Frame Time: 0.033333
8.843179 -2.832440 -59.358829 -1.591797 1.044922 34.423832 0.000000 0.000000 0.000000 54.150387 5.478516 8.603516 -8.447267 0.000000 0.000000 -25.634766 -9.218750 36.385155 -2.812500 -0.087891 -0.009766 -73.066406 -1.074219 -28.369064 -35.410156 -27.021482 6.147015 27.001953 -27.675783 13.466798 2.802734 0.078125 -0.009779 38.183594 36.845703 -62.093754 63.662109 21.552734 -3.148119 -8.466797 3.300781 41.474609 -8.085474 29.079254 2.920125 17.583399 -5.975811 2.143728 -3.280674 -2.694822 -19.874138 -12.489753 -41.582771 -11.590219 50.121101 4.589788 7.533278 -22.467316 7.740577 22.362694 
8.476192 -3.170985 -59.643330 -1.416016 0.869141 36.006008 0.000000 0.000000 0.000000 53.984379 5.605469 8.731421 -8.447267 0.000000 0.000000 -26.318357 -8.847656 35.242634 -2.812500 -0.087891 -0.009766 -72.666016 -2.646484 -29.756306 -35.800781 -27.519531 6.162109 26.982422 -27.500000 13.818359 2.802734 0.078125 -0.009779 34.394531 39.062496 -64.404297 69.169922 23.896482 -4.433594 -7.851562 -0.527344 50.283112 -10.504718 29.180962 1.545678 18.465721 -6.172220 2.238418 -2.924125 -5.437166 -22.027916 -10.049317 -42.690037 -12.550292 49.615479 4.261413 7.526493 -24.556759 7.446435 23.514406 
8.109089 -3.600629 -59.910843 -1.240234 0.869141 37.422024 0.000000 0.000000 0.000000 54.296875 5.253906 9.024332 -8.447267 0.000000 0.000000 -27.363281 -8.593751 33.896484 -2.812500 -0.087891 -0.009766 -71.894531 -4.736328 -31.153149 -36.445313 -28.085939 5.922567 26.982422 -27.500000 14.345702 2.802734 0.078125 -0.009779 30.429688 41.962891 -65.686829 72.861328 25.556639 -5.004212 -10.839844 1.904297 58.583981 -14.029628 29.417068 -0.054635 19.010168 -6.190914 1.989403 -3.438526 -8.124779 -24.311422 -7.598169 -43.700523 -13.197330 49.267330 3.909926 7.516716 -27.417084 6.533368 24.001873 
7.653837 -4.124203 -60.164074 -0.712891 1.220703 39.355469 0.000000 0.000000 0.000000 55.234379 4.218750 9.405015 -8.447267 0.000000 0.000000 -28.740238 -8.164063 31.611332 -2.812500 -0.087891 -0.009766 -70.195313 -7.666016 -32.685547 -37.099606 -28.652344 5.668743 26.806641 -27.519533 14.868535 2.802734 0.078125 -0.009779 27.167969 44.695282 -65.716469 73.007813 26.025393 -4.052735 -11.923828 4.824219 64.335938 -18.247015 28.918888 -1.532233 19.607121 -5.976612 1.265943 -3.314749 -10.247076 -25.105291 -5.158378 -45.217426 -14.627974 48.907345 4.268609 7.805386 -30.620731 5.131709 24.742598 
7.343728 -4.593618 -60.505459 -0.185547 1.044922 41.474609 0.000000 0.000000 0.000000 56.201172 3.134766 9.766159 -8.447267 0.000000 0.000000 -30.654295 -7.675781 29.197914 -2.812500 -0.087891 -0.009766 -68.281250 -11.630859 -33.710938 -37.041016 -28.496094 6.020286 26.835938 -27.871094 15.747389 2.802734 0.078125 -0.009779 23.740231 47.587891 -63.857418 67.343750 24.667971 -0.873216 -10.546875 5.273438 67.217117 -21.707321 28.006334 -2.788865 19.099474 -5.729011 0.805422 -2.823948 -12.159794 -25.442677 -2.852108 -46.395782 -16.431961 48.318069 4.788303 8.127711 -33.086266 3.935240 25.060123 
7.224193 -4.915171 -60.861115 0.351563 1.044921 43.242397 0.000000 0.000000 0.000000 57.695313 1.875000 10.175782 -8.447267 0.000000 0.000000 -32.919922 -7.158204 26.981205 -2.812500 -0.087891 -0.009766 -65.830070 -15.751955 -34.377651 -36.689453 -28.173828 5.751955 26.699221 -28.232422 16.626242 2.802734 0.078125 -0.009779 21.679686 49.980469 -61.640625 60.761719 22.255861 2.294922 -10.263672 6.347656 66.689453 -26.312206 27.182640 -5.065334 20.124725 -5.894813 -0.188934 -2.169164 -13.056666 -24.924992 -2.170747 -47.052906 -17.653442 48.132195 4.954244 8.383334 -34.610104 2.547705 23.799595 
7.383610 -5.182568 -61.239548 0.703125 0.693359 44.306763 0.000000 0.000000 0.000000 59.765625 0.087891 10.869141 -8.447267 0.000000 0.000000 -35.712891 -6.718750 24.920734 -2.812500 -0.087891 -0.009766 -63.505863 -20.390625 -33.828121 -36.318359 -27.236326 5.478517 26.533203 -28.417969 17.339106 2.802734 0.078125 -0.009779 21.142578 50.810551 -59.670174 54.619141 19.472656 4.225260 -10.634766 9.140625 64.199219 -29.572325 26.088686 -6.687229 20.285908 -5.952034 -0.398200 -1.818711 -13.751396 -24.754061 -2.365581 -47.348591 -18.137989 48.142258 4.602643 8.390566 -34.557026 2.067536 21.756386 
7.779038 -5.236610 -61.563820 1.406250 0.166016 45.000027 0.000000 0.000000 0.000000 61.210941 -1.611328 11.298553 -8.447267 0.000000 0.000000 -38.134766 -6.074219 23.574221 -2.812500 -0.087891 -0.009766 -61.562496 -24.521486 -33.295067 -35.302734 -26.181641 5.521886 26.572268 -28.769531 17.954287 2.802734 0.078125 -0.009779 21.474607 50.283203 -58.994141 50.185547 17.207031 5.292969 -11.689453 13.828124 61.828506 -31.915459 24.721790 -7.097776 20.108425 -5.963983 -0.714464 -2.343791 -12.930077 -24.714100 -3.781112 -47.838196 -17.061831 48.334496 4.417086 8.523218 -33.478073 0.878689 18.841957 
8.353824 -5.199675 -61.814220 1.933594 -0.878906 45.664066 0.000000 0.000000 0.000000 61.787106 -2.333985 11.298828 -8.447267 0.000000 0.000000 -39.492188 -5.439454 22.851561 -2.812500 -0.087891 -0.009766 -60.703121 -27.470703 -32.104115 -33.681641 -24.316408 6.078240 26.611328 -29.121096 18.305796 2.802734 0.078125 -0.009779 22.832031 48.906250 -59.533657 47.451172 15.458985 4.951172 -12.783204 18.867188 58.535160 -32.976254 23.494837 -6.602592 19.054766 -5.720951 -0.921289 -1.927570 -11.446947 -23.658226 -5.313097 -47.976349 -15.203114 49.030636 4.602875 8.317320 -32.337177 -1.036629 15.881413 
8.939939 -5.128522 -62.064610 2.285156 -1.757813 46.328125 0.000000 0.000000 0.000000 61.982422 -2.656250 11.024937 -8.447267 0.000000 0.000000 -40.117184 -4.667969 22.303892 -2.812500 -0.087891 -0.009766 -60.048824 -29.541016 -30.756765 -31.953127 -22.441406 6.445313 26.787109 -29.111324 18.310549 2.802734 0.078125 -0.009779 24.550779 47.382816 -61.201172 47.167969 14.511719 3.808594 -12.421876 18.710938 54.511719 -32.729893 22.390142 -5.808442 17.637917 -5.602897 -0.427805 -1.889710 -11.019401 -23.310402 -6.543975 -47.565163 -13.792150 49.560577 4.778466 8.095582 -30.956507 -1.906768 13.307063 
9.506117 -4.980550 -62.269470 2.109375 -2.460938 47.001530 0.000000 0.000000 0.000000 61.972656 -2.490234 10.283203 -8.447267 0.000000 0.000000 -40.400387 -3.710938 22.147806 -2.812500 -0.087891 -0.009766 -59.794926 -30.576172 -29.160154 -30.126953 -20.517580 6.884767 26.914063 -28.564451 17.944553 2.802734 0.078125 -0.009779 26.464846 45.537109 -64.270370 48.681637 15.107421 2.822266 -11.074219 15.107421 51.311142 -31.977928 21.765129 -4.993338 16.559629 -5.419486 -0.483671 -2.172871 -11.825158 -23.135118 -6.895168 -46.870583 -12.936813 50.103554 5.130148 7.780353 -29.273008 -2.558573 11.103800 
9.913097 -4.912229 -62.417439 1.757813 -2.812500 47.187500 0.000000 0.000000 0.000000 62.128902 -2.226563 9.687500 -8.447267 0.000000 0.000000 -40.341797 -2.900391 22.450678 -2.812500 -0.087891 -0.009766 -59.785152 -30.205078 -27.758814 -28.691404 -19.091797 7.151632 27.001953 -27.675783 17.685547 2.802734 0.078125 -0.009779 29.082033 43.037109 -68.616379 55.537109 17.626953 1.259766 -11.845703 13.466797 50.744461 -31.275757 21.423754 -4.444402 16.253601 -5.252462 -0.096047 -2.263550 -12.404198 -23.542707 -6.710634 -46.183128 -12.987970 51.188091 4.961999 7.453633 -28.355110 -2.672136 9.359723 
10.169163 -4.818408 -62.528362 1.230469 -2.812500 47.558594 0.000000 0.000000 0.000000 61.933594 -1.992188 8.749661 -8.447267 0.000000 0.000000 -40.126953 -2.099610 22.753902 -2.812500 -0.087891 -0.009766 -59.833988 -28.974611 -26.884768 -27.363281 -18.066406 7.480468 27.285158 -26.953127 16.968229 2.802734 0.078125 -0.009779 31.201176 40.869141 -72.415489 63.730465 20.429688 -1.113282 -11.669922 11.191406 52.529297 -29.597252 20.828613 -3.455759 15.153218 -5.182071 0.006048 -2.668548 -13.175568 -23.943874 -6.895710 -45.431328 -13.090219 52.586567 4.788443 7.692315 -26.986225 -2.959396 8.348845 
10.154885 -4.761535 -62.667835 0.878906 -2.460938 47.587887 0.000000 0.000000 0.000000 61.562504 -1.679688 7.626667 -8.447267 0.000000 0.000000 -39.580074 -1.650391 23.446985 -2.812500 -0.087891 -0.009766 -60.263676 -27.050781 -25.849609 -26.298828 -17.275391 7.873993 27.001953 -25.917971 16.874998 2.802734 0.078125 -0.009779 32.421875 39.882813 -74.765617 71.191406 23.125000 -3.955078 -10.751953 8.251953 56.464844 -28.347651 20.633440 -2.741696 14.839867 -5.006178 0.042386 -2.945711 -13.582943 -25.253063 -7.412952 -44.995781 -13.089236 55.057289 4.417302 8.077835 -25.846418 -1.881104 9.257105 
9.986973 -4.770030 -62.804478 0.351563 -1.582030 47.441162 0.000000 0.000000 0.000000 61.376953 -1.523438 6.884505 -8.447267 0.000000 0.000000 -38.691406 -1.435547 23.691408 -2.812500 -0.087891 -0.009766 -61.005856 -25.488283 -24.388966 -25.429688 -16.464844 7.834798 26.386721 -25.078127 16.714611 2.802734 0.078125 -0.009779 32.763668 40.068363 -74.941406 76.962891 24.619141 -5.795084 -10.791015 6.318359 61.397560 -27.383743 20.687426 -2.427731 14.859048 -5.015587 0.409660 -3.235959 -13.671238 -25.925184 -7.949865 -44.167866 -13.245455 57.529160 4.075641 8.502162 -25.141006 -0.508188 10.338577 
9.608540 -4.858182 -62.938183 -0.185547 -0.351563 46.933594 0.000000 0.000000 0.000000 61.035156 -1.621094 6.562223 -8.447267 0.000000 0.000000 -38.007813 -1.826172 24.052734 -2.812500 -0.087891 -0.009766 -61.914059 -24.111328 -22.660234 -24.873047 -16.416016 7.519533 25.771482 -24.248045 17.333984 2.802734 0.078125 -0.009779 32.216797 41.093746 -73.681641 80.048828 25.400391 -6.865235 -11.132813 6.113281 65.771484 -26.492645 20.330982 -2.101440 14.727816 -5.397552 0.747609 -3.032593 -13.522832 -26.402622 -8.652901 -43.987011 -13.727592 59.652306 3.723821 9.213270 -24.908314 0.581485 11.426493 
9.067972 -4.869626 -63.046280 -0.537109 1.044924 46.396614 0.000000 0.000000 0.000000 60.693363 -1.816406 6.796566 -8.447267 0.000000 0.000000 -37.324219 -2.460938 23.778879 -2.812500 -0.087891 -0.009766 -63.164059 -22.919924 -21.107321 -24.482420 -16.181641 7.053502 25.214844 -24.111328 17.353514 2.802734 0.078125 -0.009779 31.298826 42.958984 -70.976563 79.130859 26.005857 -5.722656 -11.191406 6.992188 68.409393 -25.553448 20.280882 -1.488545 14.425076 -5.221965 0.422881 -2.894377 -12.885880 -27.587147 -8.985011 -43.471149 -14.693127 61.592098 3.020921 9.502103 -25.253336 1.955941 12.559165 
8.367986 -4.969220 -63.162975 -0.888672 2.451172 45.840260 0.000000 0.000000 0.000000 60.527348 -2.080078 7.216442 -8.447267 0.000000 0.000000 -36.669922 -3.359375 23.564453 -2.812500 -0.087891 -0.009766 -64.589851 -21.748049 -19.912109 -24.941408 -16.787109 6.513673 25.058594 -24.306641 17.529295 2.802734 0.078125 -0.009779 30.361328 45.322262 -66.992180 73.867188 26.025391 -2.636719 -10.947265 8.417969 70.343224 -24.911552 20.507416 -1.463137 14.330309 -5.440444 0.602373 -2.531360 -12.492989 -28.277660 -9.180866 -43.195610 -15.166558 63.014820 2.493065 9.477973 -26.394335 2.851825 13.645478 
7.534416 -4.932168 -63.225525 -0.888672 3.857422 45.458988 0.000000 0.000000 0.000000 60.029297 -2.470703 7.509820 -8.447267 0.000000 0.000000 -36.025391 -4.404297 23.095699 -2.812500 -0.087891 -0.009766 -65.859375 -20.566406 -19.238279 -25.429688 -17.539064 6.028333 25.087889 -24.658203 17.353514 2.802734 0.078125 -0.009779 29.873045 48.388672 -61.611332 65.117188 24.570313 2.099610 -9.667969 7.978516 72.001953 -24.487446 20.435829 -1.405039 13.735356 -5.523215 0.791544 -2.515598 -11.621141 -29.069107 -8.994672 -42.789688 -16.109812 63.539249 1.975695 9.541594 -28.147161 3.289145 14.709433 
